<svg width="186" height="186" viewBox="0 0 165 186" fill="none" xmlns="http://www.w3.org/2000/svg">
    <style xmlns="http://www.w3.org/2000/svg" type="text/css">
        .st0{fill:#F2981A;}
        .st1{fill:#545454;}
    </style>
    <g xmlns="http://www.w3.org/2000/svg">
        <path class="st0" d="M155.8,30.9V88c-24.9-10.1-49.4-20-74-29.9c-17.6,7.1-35.2,14.2-53,21.5v58.7c-0.7-0.4-1.1-0.4-1.3-0.7   c-11.7-14.3-20.6-29.5-20-49c0.5-17.7,0.1-35.4,0.1-53c0-1.4,0-2.8,0-4.6C32.3,21,57,11,81.8,0.9C106.4,10.9,131,20.8,155.8,30.9    M81.8,35.2c17.6,7.1,35,14.1,52.7,21.3V45.1c-17.7-7.2-35.3-14.3-52.7-21.3C63.9,31,46.4,38.1,29.2,45.1v11.4   C47,49.3,64.3,42.3,81.8,35.2"/>
        <path class="st0" d="M39.7,150.9V86.5c14-5.7,27.9-11.3,42.1-17.1c24.4,9.9,48.9,19.8,74.3,30.1c-2.3,6.7-4.6,13.1-6.9,20   c-23-9.3-45.2-18.3-67.4-27.2c-7,2.8-13.9,5.6-20.9,8.5V142c6.6,5.3,13.6,11,21,17.1c8.7-7.3,17.1-14.3,26.2-21.9   c-5.6-2.3-10.2-4.2-15.4-6.2c-0.2,2-0.3,3.7-0.5,5.9c-3.1,2.6-6.6,5.4-10.4,8.6c-3.6-2.9-7-5.7-10.4-8.4V108   c3.3-1.3,6.7-2.8,10.3-4.3c20.2,8.2,40.5,16.4,61.3,24.8c-16.7,23.1-38,40.3-61.2,55.8C66.6,174.5,52.6,163.5,39.7,150.9"/>
    </g>
</svg>
