<svg xmlns="http://www.w3.org/2000/svg" viewBox="0 0 120 122"  id="coin-coin-rei">
    <defs>
        <style type="text/css">
            .st0{display:none;}
            .st1{display:inline;}
            .st2{fill:#12161C;}
            .st3{fill:#F0B90B;}
            .st4{opacity:0.8;fill:#12161C;enable-background:new    ;}
            .st5{fill:#101010;}
        </style>
    </defs>
    <path class="st5" d="M57,11.9c1.2,0,2.4,0.3,3.5,0.9L97,33.9c2.1,1.2,3.5,3.5,3.5,6v42.2c0,2.5-1.3,4.8-3.5,6l-36.6,21.1
		c-1,0.6-2.2,0.9-3.5,0.9c-1.2,0-2.4-0.3-3.5-0.9L17,88.1c-2.1-1.2-3.5-3.5-3.5-6V39.9c0-2.5,1.3-4.8,3.5-6l36.6-21.1
		C54.6,12.2,55.8,11.9,57,11.9 M57,1c-3.1,0-6.1,0.8-8.9,2.4L11.6,24.5c-5.5,3.2-8.9,9-8.9,15.4v42.2c0,6.4,3.4,12.2,8.9,15.4
		l36.6,21.1c2.8,1.6,5.8,2.4,8.9,2.4s6.1-0.8,8.9-2.4l36.6-21.1c5.5-3.2,8.9-9,8.9-15.4V39.9c0-6.4-3.4-12.2-8.9-15.4L65.9,3.4
		C63.2,1.8,60.1,1,57,1L57,1z"/>
</svg>